HIERARCHY
ROOT Hips
{
  OFFSET 0 0 0
  CHANNELS 6 Xposition Yposition Zposition Zrotation Yrotation Xrotation
  JOINT LeftThigh
  {
    OFFSET 8.759831 0 -6.164326
    CHANNELS 3 Zrotation Yrotation Xrotation
    JOINT LeftLeg
    {
      OFFSET 0 0 -44.123596
      CHANNELS 3 Zrotation Yrotation Xrotation
      JOINT LeftFoot
      {
        OFFSET 0 0 -40.997191
        CHANNELS 3 Zrotation Yrotation Xrotation
        End Site
        {
          OFFSET 0 -13.883989 -5.217556
        }
      }
    }
  }
  JOINT RightThigh
  {
    OFFSET -8.759831 0 -6.164326
    CHANNELS 3 Zrotation Yrotation Xrotation
    JOINT RightLeg
    {
      OFFSET 0 0 -44.123596
      CHANNELS 3 Zrotation Yrotation Xrotation
      JOINT RightFoot
      {
        OFFSET 0 0 -40.997191
        CHANNELS 3 Zrotation Yrotation Xrotation
        End Site
        {
          OFFSET 0 -13.883989 -5.217556
        }
      }
    }
  }
  JOINT SpineLow
  {
    OFFSET 0 0 4.91573
    CHANNELS 3 Zrotation Yrotation Xrotation
    JOINT SpineMid
    {
      OFFSET 0 0 13.436657
      CHANNELS 3 Zrotation Yrotation Xrotation
      JOINT Chest
      {
        OFFSET 0 0 13.436657
        CHANNELS 3 Zrotation Yrotation Xrotation
        JOINT LeftShoulder
        {
          OFFSET 7.865169 1.474719 9.831461
          CHANNELS 3 Zrotation Yrotation Xrotation
          JOINT LeftArm
          {
            OFFSET 9.536517 0 4.424157
            CHANNELS 3 Zrotation Yrotation Xrotation
            JOINT LeftForearm
            {
              OFFSET 0 0 26.845787
              CHANNELS 3 Zrotation Yrotation Xrotation
              JOINT LeftHand
              {
                OFFSET 0 0 26.247051
                CHANNELS 3 Zrotation Yrotation Xrotation
              }
            }
          }
        }
        JOINT RightShoulder
        {
          OFFSET -7.865169 1.474719 9.831461
          CHANNELS 3 Zrotation Yrotation Xrotation
          JOINT RightArm
          {
            OFFSET -9.536517 0 4.424157
            CHANNELS 3 Zrotation Yrotation Xrotation
            JOINT RightForearm
            {
              OFFSET 0 0 -26.845787
              CHANNELS 3 Zrotation Yrotation Xrotation
              JOINT RightHand
              {
                OFFSET 0 0 -26.247051
                CHANNELS 3 Zrotation Yrotation Xrotation
              }
            }
          }
        }
        JOINT Neck
        {
          OFFSET 0 0 15.730337
          CHANNELS 3 Zrotation Yrotation Xrotation
          JOINT Head
          {
            OFFSET 0 0 11.797753
            CHANNELS 3 Zrotation Yrotation Xrotation
            End Site
            {
              OFFSET 0 0 7.747191
            }
          }
        }
      }
    }
  }
}
MOTION
Frames: 10
Frame Time: 0.01
22.139824  89.632538  -61.992817  171.869157  43.407158  73.484718  -1.015587  -33.862808  -24.195436  16.616493  20.705107  38.083217  -11.334589  16.434632  2.980784  -8.344243  20.017088  4.352578  -10.573698  8.090927  42.433479  2.5938  -11.061384  -26.504524  -2.495563  -0.66156  -0.921406  -6.796741  -1.90082  -2.447877  -6.796741  -1.90082  -2.447877  -16.333211  14.502149  5.64425  -115.811516  62.434071  -84.260883  -37.989018  6.000832  129.118122  95.159392  -6.678363  -29.879861  8.522664  -10.033179  17.349794  38.815197  48.452011  16.250407  -4.588809  -26.32804  -89.890241  78.206112  4.998696  -23.262321  5.538636  -3.910151  9.538204  4.21469  -2.847299  7.187045  
21.80854  88.969406  -62.872719  173.840178  43.310226  75.185099  1.637039  -35.776604  -26.908005  16.477639  21.782869  40.81187  -12.967637  15.767487  1.770778  -9.032466  19.346095  3.659056  -12.093869  8.635574  43.632645  1.921514  -10.910794  -26.636024  -2.824971  -0.902352  -0.827192  -7.693391  -2.558865  -2.153143  -7.693391  -2.558865  -2.153142  -17.386842  13.948395  3.7881  -114.052655  54.725823  -81.88657  -37.948299  5.129175  134.757302  96.138875  -9.039596  -27.782133  8.197732  -8.935546  17.616302  38.563963  47.270523  18.219067  -6.373954  -31.583246  -87.014353  77.94677  7.53205  -24.297611  5.937021  -4.040817  9.529458  4.515318  -2.939248  7.18423  
21.526569  88.351883  -63.813366  175.862744  43.488405  76.974035  4.433689  -37.487867  -29.358656  16.054356  22.890313  43.019285  -13.889372  14.954427  0.707758  -10.160185  18.661545  2.975578  -12.673899  8.826718  44.38793  1.209516  -10.812353  -26.799053  -2.996715  -1.148335  -0.729366  -8.16166  -3.223344  -1.849248  -8.16166  -3.223344  -1.849248  -18.572399  13.051792  2.365845  -113.133983  48.265107  -79.315274  -38.314137  5.16134  139.558909  96.636749  -11.586882  -26.28195  7.415399  -7.923363  17.775102  38.27648  45.717773  19.594707  -7.928941  -35.217833  -84.486964  78.281438  9.87877  -25.104639  6.032094  -4.27816  9.335117  4.588688  -3.117743  7.041173  
21.503027  87.853401  -64.698769  177.559668  44.145466  78.609204  7.299627  -38.881998  -31.225325  15.199934  24.0754  44.393995  -14.379266  14.37013  -0.333295  -11.515063  17.96858  2.286587  -12.440774  8.97232  44.694918  0.719648  -10.830997  -27.046963  -3.162481  -1.424723  -0.644833  -8.615133  -3.97069  -1.574597  -8.615134  -3.97069  -1.574597  -18.777504  12.209138  1.316114  -111.937396  43.730184  -75.814673  -39.737551  5.55268  142.810436  97.729056  -13.84948  -25.612733  7.197621  -6.724317  17.898563  38.538569  43.841776  20.882552  -8.982562  -37.217734  -83.053757  78.628372  11.331765  -25.697388  6.429258  -4.348528  9.041122  4.885329  -3.167564  6.824288  
21.659845  87.514244  -65.488037  178.572468  45.226089  80.171719  10.065327  -39.548494  -32.677301  14.497031  25.302712  45.100367  -14.116884  13.37801  -1.127959  -13.069701  17.510122  1.098227  -11.592064  9.216984  44.709341  0.893379  -10.94979  -27.357541  -3.194573  -1.551532  -0.712763  -8.696829  -4.326202  -1.741704  -8.696829  -4.326203  -1.741705  -18.662772  11.064735  1.634774  -110.188683  40.288477  -71.59597  -41.625385  5.936451  144.73058  98.840851  -15.253636  -25.629901  6.613715  -6.377714  17.961988  39.678543  41.647537  22.838742  -9.584321  -38.259506  -82.646493  77.649076  13.332165  -25.403693  6.623232  -4.753852  8.967252  5.035743  -3.469632  6.774126  
21.778162  87.322258  -66.166412  178.795505  46.062937  81.179577  11.423503  -39.537126  -33.095744  13.801497  26.011664  44.950538  -13.781623  12.874968  -1.739582  -15.083505  17.667817  -0.224032  -10.437031  9.623696  44.477134  2.153719  -10.740417  -27.642263  -3.176651  -1.510027  -0.806932  -8.642338  -4.224806  -2.005472  -8.642339  -4.224806  -2.005472  -18.571352  9.578735  2.177414  -108.333778  37.671208  -67.816477  -42.848386  6.346221  145.994594  99.296989  -15.829388  -25.915558  5.686447  -6.874241  17.84812  40.804024  39.647957  24.804576  -9.987563  -39.778906  -83.141431  77.06392  16.468286  -23.486538  6.598038  -5.38652  8.844105  5.024271  -3.946008  6.687395  
21.838339  87.166931  -66.936745  178.403037  46.776767  81.09553  11.334216  -39.22587  -32.267007  13.590378  26.260067  44.881988  -13.112637  12.36542  -2.329906  -16.886304  18.414483  -0.97171  -9.118887  10.326474  44.197082  4.171895  -11.556271  -27.764359  -3.154491  -1.400532  -0.828868  -8.582572  -3.928324  -2.080808  -8.582573  -3.928324  -2.080808  -18.493865  8.645274  2.469761  -106.584825  35.901831  -65.013922  -42.575698  6.789902  146.929588  99.53734  -16.311433  -26.101397  4.782953  -7.247682  17.853226  40.986324  37.638977  25.628008  -13.111928  -41.40719  -82.172207  76.617621  15.976521  -23.767201  6.522578  -5.869926  8.745135  4.973101  -4.31083  6.616817  
21.953836  86.922668  -67.753746  177.637001  47.584707  80.362847  10.453997  -39.238172  -31.055683  14.340581  26.676531  45.462603  -12.471378  11.771287  -2.958102  -18.020285  19.438328  -1.369719  -7.528075  10.812761  44.205893  5.869237  -12.859026  -28.092303  -3.154219  -1.26257  -0.784145  -8.587309  -3.546194  -1.976331  -8.587308  -3.546194  -1.976331  -17.669556  8.04243  2.498786  -105.348095  35.074862  -63.093003  -41.333904  7.137707  147.322032  100.441528  -16.646234  -26.243467  4.28871  -7.483433  18.178274  39.749817  36.134077  25.016082  -12.698488  -41.169704  -82.801344  74.979861  15.858299  -23.103848  6.657239  -6.20607  8.652461  5.077402  -4.562132  6.551724  
22.010406  86.807365  -68.39698  176.511668  48.59827  79.492633  9.441958  -39.919304  -30.051074  16.064701  27.425523  46.47323  -11.792628  11.266193  -3.412462  -18.364237  20.625391  -1.922246  -5.975221  10.283445  44.311491  6.254214  -13.694873  -28.285715  -3.078203  -1.096109  -0.76704  -8.383808  -3.087768  -1.954592  -8.383807  -3.087768  -1.954592  -16.610019  7.501291  1.967312  -104.141013  35.859581  -61.510655  -40.43435  7.214416  146.863927  101.866576  -16.766745  -26.435421  3.699466  -7.649791  18.708047  37.657715  35.714823  23.773457  -12.21482  -41.139446  -83.088422  74.107763  15.811248  -22.884212  6.753471  -6.498445  8.638928  5.153077  -4.780312  6.54524  
22.045153  86.909706  -68.664146  175.207832  49.82968  78.723768  8.439563  -40.537574  -29.354797  17.959185  28.17973  47.551866  -10.928969  10.828549  -3.791386  -17.803277  21.730082  -2.575456  -5.071508  9.007051  44.30649  5.977093  -13.862916  -28.322803  -2.889508  -0.91607  -0.768547  -7.871844  -2.591364  -1.98885  -7.871844  -2.591364  -1.98885  -15.846817  6.825214  1.166333  -102.510604  37.897894  -59.671863  -40.625318  6.799697  145.647546  103.102269  -16.773117  -26.500211  2.727817  -7.843996  19.345397  35.358946  36.3466  22.174403  -11.47145  -40.82516  -83.508644  73.240003  15.635773  -23.226026  6.702807  -6.806329  8.591625  5.118448  -5.012536  6.511983  
